<svg viewBox="0 0 100 100" fill="none" xmlns="http://www.w3.org/2000/svg">
  <!-- Outer Glow Ring -->
  <circle cx="50" cy="50" r="45" stroke="url(#gradient1)" stroke-width="2" fill="none" opacity="0.5"/>
  
  <!-- Main Circle -->
  <circle cx="50" cy="50" r="38" fill="url(#gradient2)"/>
  
  <!-- Letter A Design -->
  <path d="M 50 25 L 65 65 L 60 65 L 56 55 L 44 55 L 40 65 L 35 65 Z M 50 35 L 45 50 L 55 50 Z" fill="white" stroke-width="1.5" stroke="white"/>
  
  <!-- Casino Chip Details -->
  <circle cx="50" cy="50" r="38" stroke="white" stroke-width="1" fill="none" opacity="0.3"/>
  <circle cx="50" cy="50" r="35" stroke="white" stroke-width="0.5" fill="none" opacity="0.2"/>
  
  <!-- Chip Segments -->
  <line x1="85.35" y1="50" x2="88" y2="50" stroke="white" stroke-width="2" opacity="0.4"/>
  <line x1="82.68" y1="67.68" x2="85.21" y2="70.21" stroke="white" stroke-width="2" opacity="0.4"/>
  <line x1="67.68" y1="82.68" x2="70.21" y2="85.21" stroke="white" stroke-width="2" opacity="0.4"/>
  <line x1="50" y1="85.35" x2="50" y2="88" stroke="white" stroke-width="2" opacity="0.4"/>
  <line x1="32.32" y1="82.68" x2="29.79" y2="85.21" stroke="white" stroke-width="2" opacity="0.4"/>
  <line x1="17.32" y1="67.68" x2="14.79" y2="70.21" stroke="white" stroke-width="2" opacity="0.4"/>
  <line x1="14.65" y1="50" x2="12" y2="50" stroke="white" stroke-width="2" opacity="0.4"/>
  <line x1="17.32" y1="32.32" x2="14.79" y2="29.79" stroke="white" stroke-width="2" opacity="0.4"/>
  
  <!-- Gradients -->
  <defs>
    <linearGradient id="gradient1" x1="0%" y1="0%" x2="100%" y2="100%">
      <stop offset="0%" stop-color="#a855f7"/>
      <stop offset="50%" stop-color="#ec4899"/>
      <stop offset="100%" stop-color="#3b82f6"/>
    </linearGradient>
    <linearGradient id="gradient2" x1="0%" y1="0%" x2="100%" y2="100%">
      <stop offset="0%" stop-color="#7c3aed"/>
      <stop offset="50%" stop-color="#a855f7"/>
      <stop offset="100%" stop-color="#ec4899"/>
    </linearGradient>
  </defs>
</svg>
